<svg fill="none" height="32" viewBox="0 0 167 32" width="167" xmlns="http://www.w3.org/2000/svg" xmlns:xlink="http://www.w3.org/1999/xlink"><clipPath id="a"><path d="m0 0h167v32h-167z"/></clipPath><g clip-path="url(#a)" clip-rule="evenodd" fill-rule="evenodd"><path d="m24.6102 31.9601h-19.76694c-2.67486 0-4.84326-2.1684-4.84326-4.8432 0-2.6753 2.168-4.8444 4.84326-4.8457l11.20054-.0057c1.8425-.0009 3.5451.9824 4.4652 2.5787z" fill="#1e6efa"/><path d="m3.66937 19.5411 9.88343-17.11866c1.3375-2.316497 4.2995-3.110186 6.616-1.772758 2.3169 1.337628 3.1114 4.299718 1.7749 6.617228l-5.5954 9.70279c-.9204 1.5961-2.6233 2.579-4.4658 2.5776z" fill="#ff3c5a"/><path d="m24.9251 7.61536 9.8835 17.11864c1.3374 2.3165.5437 5.2786-1.7728 6.616-2.3168 1.3376-5.2793.5446-6.6181-1.7715l-5.6051-9.6971c-.9221-1.5952-.9218-3.5614.0006-5.1564z" fill="#ffc5ce"/><g fill="#00143c"><path d="m52.1049 19.2703 5.026-.7723c1.1619-.1716 1.5361-.7711 1.5361-1.4994 0-1.5005-1.1214-2.7436-3.4474-2.7436-2.4091 0-3.7383 1.5863-3.9036 3.429l-4.9013-1.0715c.3326-3.3003 3.2811-6.94386 8.7644-6.94386 6.4789 0 8.887 3.77226 8.887 8.01536v10.3728c0 1.1144.1247 2.6149.2494 3.3432h-5.0665c-.1247-.5577-.2079-1.715-.2079-2.5291-1.0382 1.6721-2.9911 3.1287-6.0227 3.1287-4.3609 0-7.0183-3.0429-7.0183-6.3432 0-3.7722 2.699-5.8723 6.1048-6.3861zm6.6464 3.5689v-.9691l-4.488.7489c-1.3753.2202-2.4672 1.0561-2.4672 2.7279 0 1.2764.849 2.5088 2.5886 2.5088 2.2638 0 4.3666-1.1883 4.3666-5.0165z"/><path d="m74.8334 10.3786h4.088v5.0037h-4.088v8.736c0 1.8243.8256 2.4175 2.3954 2.4175.6603 0 1.4033-.0849 1.6926-.1698v4.6652c-.496.2122-1.487.5083-3.097.5083-3.9651 0-6.4422-2.4164-6.4422-6.4448v-9.7124h-3.6757v-5.0037h1.0323c2.1474 0 3.1384-1.44222 3.1384-3.30787v-2.92687h4.9562z"/><path d="m101.702 20.8345c0 6.4606-4.6388 11.1655-10.7809 11.1655-6.1422 0-10.7807-4.7049-10.7807-11.1655 0-6.5023 4.6385-11.16543 10.7807-11.16543 6.1421 0 10.7809 4.66313 10.7809 11.16543zm-5.5645-.1156c0-3.9758-2.5033-5.9851-5.2164-5.9851-2.7122 0-5.2165 2.0093-5.2165 5.9851 0 3.934 2.5043 5.9861 5.2165 5.9861 2.7131 0 5.2164-2.0093 5.2164-5.9861z"/><path d="m141.897 0c1.886 0 3.361 1.55772 3.361 3.49592 0 1.85283-1.475 3.41055-3.361 3.41055-1.846 0-3.362-1.55772-3.362-3.41055 0-1.9382 1.516-3.49592 3.362-3.49592zm-2.666 10.3597h5.332v20.9496h-5.332z"/><path d="m152.801 20.8345c0 3.8079 2.393 5.9467 5.197 5.9467 2.805 0 4.208-1.9247 4.662-3.5509l4.825 1.669c-.907 3.507-4.083 7.1007-9.487 7.1007-5.981 0-10.683-4.7049-10.683-11.1655 0-6.5023 4.619-11.16543 10.518-11.16543 5.528 0 8.662 3.55093 9.528 7.10183l-4.908 1.7106c-.495-1.7535-1.774-3.5498-4.496-3.5498-2.805 0-5.156 2.0961-5.156 5.9028z"/><path d="m104.281 31.4193v-21.0409h5.333v2.5652c1.134-2.0526 3.778-3.16455 6.045-3.16455 2.813 0 5.081 1.24035 6.129 3.50705 1.638-2.5653 3.821-3.50705 6.551-3.50705 3.82 0 7.473 2.35225 7.473 7.99755v13.6427h-5.416v-12.488c0-2.2667-1.092-3.9768-3.653-3.9768-2.393 0-3.821 1.8814-3.821 4.148v12.3168h-5.541v-12.488c0-2.2667-1.134-3.9768-3.654-3.9768-2.434 0-3.862 1.8386-3.862 4.148v12.3168z"/></g></g></svg>